<svg preserveAspectRatio="none" overflow="visible" style="display: block;" width="24" height="24" viewBox="0 0 24 24" fill="none" xmlns="http://www.w3.org/2000/svg">
<g id="&#195;&#141;cone">
<path id="icon" fill-rule="evenodd" clip-rule="evenodd" d="M12 14.2866L13.4643 15.5417L17.9454 19.3827C18.0338 19.4584 18.1463 19.5 18.2626 19.5C18.5318 19.5 18.75 19.2818 18.75 19.0126V6.75C18.75 5.50736 17.7426 4.5 16.5 4.5L7.5 4.5C6.25736 4.5 5.25 5.50736 5.25 6.75L5.25 19.0126C5.25 19.2818 5.46821 19.5 5.73738 19.5C5.85372 19.5 5.96623 19.4584 6.05456 19.3827L10.5357 15.5417L12 14.2866ZM21 6.75C21 4.26472 18.9853 2.25 16.5 2.25L7.5 2.25C5.01472 2.25 3 4.26472 3 6.75L3 19.0126C3 20.5244 4.22557 21.75 5.73738 21.75C6.39082 21.75 7.02271 21.5162 7.51884 21.091L12 17.25L16.4812 21.091C16.9773 21.5162 17.6092 21.75 18.2626 21.75C19.7744 21.75 21 20.5244 21 19.0126V6.75Z" fill="#18181B"/>
</g>
</svg>
