<svg preserveAspectRatio="none" overflow="visible" style="display: block;" width="734.201" height="1120.62" viewBox="0 0 734.201 1120.62" fill="none" xmlns="http://www.w3.org/2000/svg">
<path id="Textura TEDI" d="M10.0001 83.9005C17.3001 82.8005 39.2001 78.0005 53.8001 77.0005C68.3001 76.0005 82.9001 77.3005 97.5001 77.7005C112.1 78.0005 126.7 79.8005 141.2 79.1005C155.8 78.5005 170.4 76.8005 185 73.8005C199.5 70.7005 214.1 65.2005 228.7 60.8005C243.3 56.3005 257.8 50.5005 272.4 47.1005C287 43.6005 301.6 41.3005 316.2 40.3005C330.7 39.3005 345.3 40.7005 359.9 41.0005C374.5 41.4005 389 43.1005 403.6 42.4005C418.2 41.8005 432.8 40.0005 447.3 36.9005C461.9 33.8005 476.5 28.3005 491.1 23.8005C505.7 19.4005 520.2 13.6005 534.8 10.2005C549.4 6.80054 571.2 4.70054 578.5 3.50054M114.6 158.801C122.1 156.601 144.6 148.401 159.6 145.601C174.6 142.701 189.6 141.301 204.6 141.701C219.5 142.001 234.5 145.801 249.5 147.801C264.5 149.801 279.5 153.501 294.5 153.801C309.5 154.101 324.5 152.501 339.5 149.501C354.5 146.601 369.5 140.301 384.5 136.201C399.5 132.101 414.5 126.901 429.5 124.901C444.5 123.001 459.5 123.301 474.5 124.501C489.5 125.701 504.5 130.101 519.5 131.901C534.5 133.801 557 135.001 564.5 135.601M24.2001 226.501C31.8001 224.901 54.7001 219.501 70.0001 216.801C85.3001 214.201 100.6 212.101 115.8 210.601C131.1 209.001 146.4 208.401 161.6 207.701C176.9 207.001 192.2 206.901 207.4 206.101C222.7 205.301 238 204.601 253.3 202.901C268.5 201.201 283.8 198.901 299.1 196.101C314.3 193.301 329.6 189.601 344.9 186.101C360.2 182.601 375.4 178.501 390.7 175.201C406 171.901 421.2 168.701 436.5 166.401C451.8 164.001 467 162.401 482.3 161.201C497.6 159.901 512.9 159.601 528.1 159.001C543.4 158.301 558.7 158.201 573.9 157.201C589.2 156.201 612.1 153.701 619.7 153.101M145.8 279.701C153.3 280.001 175.8 282.301 190.8 281.401C205.8 280.601 220.8 277.601 235.8 274.501C250.8 271.401 265.8 265.801 280.8 262.701C295.8 259.601 310.8 256.701 325.8 255.801C340.8 255.001 355.8 256.801 370.8 257.701C385.8 258.601 400.8 261.201 415.8 261.201C430.8 261.101 445.8 259.801 460.8 257.301C475.8 254.801 490.8 249.501 505.8 246.101C520.7 242.601 535.7 238.301 550.7 236.601C565.7 234.901 580.7 235.301 595.7 235.901C610.7 236.401 625.7 239.501 640.7 240.001C655.7 240.601 670.7 240.901 685.7 239.201C700.7 237.501 723.2 231.201 730.7 229.701M36.1001 366.801C43.8001 367.001 67.2001 369.301 82.7001 368.101C98.3001 366.901 113.8 363.701 129.3 359.501C144.9 355.401 160.4 348.401 176 343.101C191.5 337.701 207.1 331.101 222.6 327.301C238.2 323.501 253.7 321.101 269.2 320.301C284.8 319.601 308.1 322.401 315.9 322.801M152.8 442.001C160.1 440.401 182.1 435.201 196.8 432.001C211.5 428.801 226.1 425.301 240.8 422.701C255.5 420.201 270.2 418.201 284.8 416.801C299.5 415.301 314.2 414.901 328.8 414.201C343.5 413.601 358.2 413.601 372.9 412.701C387.5 411.801 402.2 410.901 416.9 409.001C431.6 407.101 446.2 404.401 460.9 401.501C475.6 398.601 490.2 394.801 504.9 391.501C519.6 388.301 534.3 384.701 548.9 382.101C563.6 379.501 578.3 377.501 593 376.001C607.6 374.501 622.3 374.101 637 373.401C651.7 372.701 673.7 372.101 681 371.901M3.50009 471.501C11.1001 471.901 34.0001 473.801 49.2001 474.101C64.4001 474.301 79.7001 474.101 94.9001 472.901C110.1 471.701 125.3 469.401 140.6 466.701C155.8 464.001 171 460.201 186.3 456.901C201.5 453.601 216.7 449.601 231.9 446.901C247.2 444.101 262.4 441.601 277.6 440.201C292.9 438.801 315.7 438.901 323.3 438.601M73.1001 538.601C80.5001 536.701 102.7 531.201 117.5 527.501C132.3 523.701 147.2 519.501 162 516.201C176.8 512.901 191.6 509.801 206.4 507.701C221.2 505.601 236 504.301 250.8 503.501C265.6 502.701 280.4 502.901 295.3 502.801C310.1 502.701 324.9 503.301 339.7 502.901C354.5 502.501 369.3 502.101 384.1 500.701C398.9 499.201 413.7 497.001 428.5 494.201C443.3 491.401 465.6 485.701 473 484.001M114.3 603.001C121.8 601.301 144.2 594.501 159.2 593.201C174.1 592.001 189.1 593.601 204 595.401C219 597.201 233.9 602.001 248.9 604.001C263.9 606.101 278.8 608.401 293.8 607.701C308.7 606.901 323.7 603.501 338.6 599.501C353.6 595.601 368.6 588.501 383.5 584.001C398.5 579.401 413.4 574.301 428.4 572.401C443.3 570.501 458.3 571.101 473.3 572.501C488.2 573.901 503.2 578.601 518.1 580.801C533.1 583.101 548 586.301 563 586.101C578 586.001 592.9 583.601 607.9 580.101C622.8 576.601 637.8 569.801 652.7 565.101C667.7 560.401 690.1 554.201 697.6 552.001M171.8 640.001C179.5 639.501 202.7 637.401 218.1 637.001C233.5 636.601 249 637.401 264.4 637.401C279.8 637.401 295.3 637.901 310.7 637.101C326.2 636.201 341.6 634.701 357 632.201C372.5 629.701 387.9 625.801 403.3 621.801C418.8 617.701 434.2 612.401 449.6 607.901C465.1 603.401 480.5 598.501 496 594.801C511.4 591.201 526.8 588.101 542.3 586.101C557.7 584.201 573.1 583.501 588.6 583.001C604 582.601 619.5 583.401 634.9 583.401C650.3 583.401 665.8 583.901 681.2 583.101C696.6 582.301 719.8 579.201 727.5 578.401M135 738.301C142.3 738.301 164.1 738.301 178.6 738.601C193.2 738.801 207.7 739.601 222.2 739.801C236.8 739.901 251.3 740.101 265.8 739.501C280.3 738.901 294.9 737.801 309.4 736.201C323.9 734.701 338.5 732.301 353 730.101C367.5 727.901 382.1 725.201 396.6 723.001C411.1 720.801 425.6 718.601 440.2 717.201C454.7 715.701 476.5 714.801 483.8 714.301M164.5 804.901C172.4 802.901 196.2 796.001 212.1 792.801C227.9 789.501 243.8 786.901 259.7 785.501C275.5 784.101 291.4 784.401 307.2 784.401C323.1 784.401 338.9 785.701 354.8 785.601C370.7 785.401 386.5 785.201 402.4 783.401C418.2 781.601 434.1 778.401 449.9 774.901C465.8 771.401 489.6 764.501 497.5 762.401M83.9001 848.801C91.6001 847.601 114.5 843.201 129.9 841.501C145.2 839.901 160.5 839.001 175.8 838.801C191.1 838.501 206.4 839.401 221.8 840.101C237.1 840.701 252.4 842.201 267.7 842.901C283 843.601 298.3 844.401 313.7 844.201C329 843.901 344.3 843.101 359.6 841.401C374.9 839.701 390.2 837.001 405.6 834.101C420.9 831.301 436.2 827.401 451.5 824.101C466.8 820.801 489.8 815.901 497.5 814.301M151 908.201C159.1 907.901 183.4 907.701 199.5 906.701C215.7 905.701 231.9 904.001 248.1 902.001C264.3 899.901 280.5 897.201 296.7 894.601C312.9 892.001 329.1 888.901 345.3 886.501C361.4 884.001 377.6 881.501 393.8 879.801C410 878.101 434.3 876.801 442.4 876.201M36.4001 961.901C44.1001 962.701 67.2001 966.201 82.7001 966.701C98.1001 967.101 113.5 967.301 129 964.801C144.4 962.201 159.8 956.101 175.3 951.401C190.7 946.801 206.1 939.901 221.6 936.901C237 933.801 252.4 932.901 267.8 933.001C283.3 933.101 298.7 936.901 314.1 937.601C329.6 938.301 345 939.301 360.4 937.301C375.9 935.201 391.3 929.701 406.7 925.101C422.2 920.601 437.6 913.301 453 909.901C468.4 906.401 483.9 904.501 499.3 904.301C514.7 904.001 530.2 907.501 545.6 908.401C561 909.301 576.5 911.101 591.9 909.501C607.3 907.901 630.5 900.601 638.2 898.801M71.0001 1061.2C78.4001 1059.5 100.4 1053.9 115.1 1051.3C129.8 1048.7 144.4 1046.7 159.1 1045.6C173.8 1044.5 188.5 1044.9 203.2 1044.8C217.9 1044.8 232.5 1045.7 247.2 1045.4C261.9 1045 276.6 1044.5 291.3 1042.7C306 1041 320.6 1038 335.3 1034.9C350 1031.8 364.7 1027.5 379.4 1024.4C394.1 1021.2 416.1 1017.2 423.4 1015.8M138.4 1115.1C145.8 1115.5 167.9 1117.1 182.6 1117.1C197.4 1117.2 212.1 1116.9 226.9 1115.6C241.6 1114.3 256.4 1111.9 271.2 1109.5C285.9 1107.2 300.7 1103.8 315.4 1101.4C330.2 1099 344.9 1096.5 359.7 1095.2C374.4 1093.8 389.2 1093.4 403.9 1093.4C418.7 1093.4 433.4 1094.7 448.2 1095.3C462.9 1096 477.7 1097.3 492.4 1097.4C507.2 1097.6 521.9 1097.3 536.7 1096.1C551.4 1094.9 566.2 1092.5 580.9 1090.2C595.7 1087.8 617.8 1083.4 625.2 1082" stroke="#ADD5ED" stroke-width="7" stroke-linecap="round" stroke-linejoin="round"/>
</svg>
